HIERARCHY
ROOT pelvis
{
  OFFSET 0 100 0
  CHANNELS 6 Xposition Yposition Zposition Zrotation Xrotation Yrotation
  JOINT pelvis_right_femur
  {
    OFFSET -10.78128 -3.44521 -0.5502486
    CHANNELS 3 Zrotation Xrotation Yrotation
    JOINT right_femur_tibia
    {
      OFFSET -0.8047443 -44.0398 -0.1307829
      CHANNELS 3 Zrotation Xrotation Yrotation
      JOINT right_tibia_foot
      {
        OFFSET 3.006224 -47.83518 -5
        CHANNELS 3 Zrotation Xrotation Yrotation
        End Site
        {
          OFFSET 0 -5 15
        }
      }
    }
  }
  JOINT pelvis_left_femur
  {
    OFFSET 10.78128 -3.44521 -0.5502486
    CHANNELS 3 Zrotation Xrotation Yrotation
    JOINT left_femur_tibia
    {
      OFFSET 0.8047443 -44.0398 -0.1307829
      CHANNELS 3 Zrotation Xrotation Yrotation
      JOINT left_tibia_foot
      {
        OFFSET -4.370144 -48.10324 -4.275266
        CHANNELS 3 Zrotation Xrotation Yrotation
        End Site
        {
          OFFSET 0 -5 15
        }
      }
    }
  }
  JOINT pelvis_spine1
  {
    OFFSET 0 6.468898 -3.129235
    CHANNELS 3 Zrotation Xrotation Yrotation
    JOINT spine1
    {
      OFFSET 0 23.15396 4.99043
      CHANNELS 3 Zrotation Xrotation Yrotation
      JOINT spine2
      {
        OFFSET 0 20.79997 -5.064912
        CHANNELS 3 Zrotation Xrotation Yrotation
        JOINT neck
        {
          OFFSET 0 14.38658 9.616178
          CHANNELS 3 Zrotation Xrotation Yrotation
          End Site
          {
            OFFSET 0 20 0
          }
        }
      }
      JOINT right_manubrium
      {
        OFFSET -5.722621 16.35077 3.967754
        CHANNELS 3 Zrotation Xrotation Yrotation
        JOINT right_clavicle
        {
          OFFSET -13.16364 1.694482 -4.693211
          CHANNELS 3 Zrotation Xrotation Yrotation
          JOINT right_humerus
          {
            OFFSET -28.5034 -0.3100689 -2.792744
            CHANNELS 3 Zrotation Xrotation Yrotation
            JOINT right_radius
            {
              OFFSET -25.15693 0.02248979 -1.271978
              CHANNELS 3 Zrotation Xrotation Yrotation
              End Site
              {
                OFFSET -15 0 0
              }
            }
          }
        }
      }
      JOINT left_manubrium
      {
        OFFSET 5.722621 16.35077 3.967754
        CHANNELS 3 Zrotation Xrotation Yrotation
        JOINT left_clavicle
        {
          OFFSET 13.16364 1.694482 -4.693211
          CHANNELS 3 Zrotation Xrotation Yrotation
          JOINT left_humerus
          {
            OFFSET 29.39168 -1.063119 -2.237045
            CHANNELS 3 Zrotation Xrotation Yrotation
            JOINT left_radius
            {
              OFFSET 24.59957 -0.9528479 0.9047498
              CHANNELS 3 Zrotation Xrotation Yrotation
              End Site
              {
                OFFSET 15 -0 -0
              }
            }
          }
        }
      }
    }
  }
}
MOTION
Frames: 15
Frame Time: 0.0416666666667
37.45413 101.8202 275.2791 -0.3373473 -3.273765 1.237594 2.540559 11.41357 6.440587 -0 42.88266 -0 7.314565 -5.952539 -11.09802 0.5625805 -25.74512 -4.246622 -0 30.73087 -0 -7.090371 -11.78657 16.50133 0.7576962 -4.427798 8.48057 -1.942959 11.49251 -3.004507 2.638409 21.07525 2.884701 -1.328188 -9.944557 6.117167 1.492403 -21.39445 10.6923 80.88073 19.98109 -5.542434 -0 0 24.42568 -25.06502 8.746294 13.35749 4.063911 -14.84428 -2.495241 -90.2603 22.3891 24.04552 0 0 -9.693485 -3.271574 3.546973 18.59867
38.62283 102.6419 281.9976 -0.2942037 -3.008022 1.860687 2.518155 7.000836 5.599645 -0 51.42375 -0 8.14064 -4.073531 -12.05148 -0.4419584 -21.96301 -5.035032 -0 30.70737 -0 -6.581067 -14.01191 16.2282 0.8401592 -5.243504 8.179683 -2.089885 11.42609 -2.621156 2.512108 21.33612 3.094412 -1.599118 -10.03894 6.412931 2.082701 -20.23486 10.75835 81.77603 20.0219 -6.834077 -0 0 22.28434 -24.44294 8.650739 12.49318 3.71152 -15.24791 -2.572986 -88.8412 22.86884 21.99402 0 0 -10.21666 -3.025257 3.698863 18.21949
39.80746 104.0204 288.1773 -0.2672652 -2.822693 2.296422 3.043707 -0.8334089 5.263797 -0 56.93972 -0 7.440509 -5.368532 -12.37763 -1.161968 -17.38127 -5.325663 -0 28.87987 -0 -6.294356 -15.8957 15.91275 0.8409219 -5.687081 7.328915 -2.119172 11.3585 -2.70839 2.299464 21.93855 3.433082 -1.907312 -9.97955 6.810807 2.85904 -19.45487 10.85314 82.94381 20.2854 -8.009596 -0 0 20.1667 -23.56821 8.657239 11.58677 3.16669 -16.00102 -2.90688 -87.20097 23.33867 19.17305 0 0 -11.11423 -2.664118 3.904564 17.6302
40.73286 105.5886 294.0067 -0.2561483 -2.72912 2.515202 3.415905 -8.295906 4.629159 -0 58.13663 -0 6.474731 -6.023973 -12.43368 -1.422668 -12.38403 -5.94356 -0 27.1329 -0 -6.205358 -17.04582 15.28889 0.5265952 -5.845696 6.18614 -1.945373 11.30177 -3.311313 2.135824 22.64557 3.82309 -2.159367 -9.828862 7.297292 3.437199 -18.74286 10.85777 84.5022 20.59491 -9.214253 -0 0 18.53068 -22.61074 8.671393 10.81735 2.7488 -16.77505 -3.574582 -85.55717 23.81779 15.91832 0 0 -12.07559 -2.339672 4.128881 17.00837
41.67614 106.6315 299.3632 -0.1826917 -2.175885 3.792232 3.672036 -15.25212 4.372948 -0 55.11791 -0 5.116079 -6.184913 -12.51472 -1.785699 -7.486126 -6.326047 -0 23.87712 -0 -6.181933 -18.16808 14.4128 0.03707494 -5.938672 4.674142 -1.525737 11.00155 -4.658363 2.214059 23.11755 4.095709 -2.239641 -9.684808 7.782817 3.361631 -18.03476 10.5222 85.94761 20.81318 -10.54026 -0 0 17.22285 -21.79239 8.620556 10.18642 2.640168 -17.50601 -4.512276 -84.01624 24.29543 12.38882 0 0 -13.3019 -2.115149 4.369132 16.29781
42.68382 106.9403 305.1173 -0.1094335 -1.519934 5.299869 3.483998 -20.60887 4.36126 -0 48.77207 -0 3.637858 -5.723859 -12.96318 -1.996731 -2.963553 -6.716869 -0 21.01601 -0 -6.13797 -19.36965 13.50072 -0.5169105 -6.426063 3.246928 -0.9814043 10.53232 -6.17965 2.572991 23.41516 4.120693 -2.126701 -9.582297 8.154823 2.809326 -17.0957 9.811983 87.17529 20.88413 -12.17436 -0 0 15.91735 -21.16074 8.478907 9.5949 2.834419 -18.31952 -5.160885 -82.3045 24.63092 8.750805 0 0 -15.16649 -1.761587 4.7734 15.29968
43.58036 106.5647 310.9263 -0.05446474 -0.8970204 6.727341 2.644446 -25.42297 4.240603 -0 39.94944 -0 2.043399 -5.380664 -13.67526 -2.071322 0.9932298 -6.95012 -0 19.07922 -0 -6.023135 -20.78797 12.72049 -1.05235 -6.767929 2.247383 -0.4891782 10.15805 -7.289982 3.148221 23.51445 3.891957 -1.853505 -9.57555 8.352185 2.063942 -16.1014 9.113164 88.14705 20.87754 -13.85676 -0 0 14.38024 -20.6339 8.278462 8.898692 3.168991 -19.15064 -5.343394 -80.67817 24.7899 5.274954 0 0 -17.40556 -1.240336 5.282802 14.09217
44.2011 105.4146 316.4438 -0.02831498 -0.5213479 7.586822 1.691971 -29.90216 4.397411 -0 30.08735 -0 0.1635596 -5.386356 -14.00204 -1.964148 4.425642 -7.040222 -0 18.41889 -0 -5.866962 -22.34921 12.22145 -1.344062 -6.788829 1.789243 0.06435539 9.807639 -7.870313 3.595689 23.61055 3.627953 -1.589498 -9.536433 8.368405 1.562935 -15.275 8.610466 88.88202 20.85183 -15.41757 -0 0 12.43028 -20.06908 8.022621 7.973492 3.625104 -20.20103 -5.274586 -78.8979 24.8227 1.700016 0 0 -19.82622 -0.6129882 5.810442 12.79681
44.87342 103.9733 322.2802 -0.01263602 -0.2525438 8.201393 0.9655228 -32.40426 4.562964 -0 21.37472 -0 -2.107301 -6.169895 -13.71765 -1.896174 7.430365 -7.081965 -0 19.1684 -0 -5.835036 -23.52899 12.04214 -1.435162 -6.72815 1.678445 0.4259018 9.558566 -7.99323 4.089627 23.54446 3.268949 -1.272654 -9.716089 8.271651 1.171736 -14.34545 8.399216 89.65744 20.77366 -16.8841 -0 0 10.11275 -19.33227 7.739974 6.816074 3.957411 -21.26488 -4.969038 -77.57469 24.72562 -1.238804 0 0 -22.05208 0.1010661 6.313357 11.51468
45.40453 102.8725 328.291 -0.007513006 -0.1529181 8.429122 1.359651 -33.65095 4.889398 -0 17.40549 -0 -4.480436 -6.478117 -13.42707 -1.780966 9.896063 -7.007692 -0 21.34876 -0 -6.112897 -23.59627 12.15018 -1.237895 -6.593994 1.740513 0.7567659 9.527615 -7.778389 4.302811 23.53443 3.023057 -1.074774 -10.06001 8.0655 1.232538 -13.60023 8.553351 90.22776 20.72885 -18.05662 -0 0 7.666199 -18.50497 7.47807 5.530892 4.000251 -21.98489 -4.608437 -76.88898 24.53682 -3.100466 0 0 -23.87721 0.8404566 6.74403 10.2943
45.92241 101.9521 335.1532 0.002877756 0.06277989 8.922088 2.065661 -32.95053 5.972313 -0 18.59586 -0 -6.544192 -5.853112 -12.92937 -1.536073 11.54698 -6.907732 -0 25.41718 -0 -6.756936 -22.0144 12.67448 -0.9347627 -7.323702 1.815529 1.049901 9.748038 -7.556483 4.340071 23.61542 2.836131 -0.9289502 -10.47856 7.764128 1.40168 -12.56222 8.637911 90.80985 20.61018 -19.26213 -0 0 5.305252 -17.65251 7.205579 4.250145 3.958307 -22.11864 -4.103398 -77.03112 24.40998 -3.685349 0 0 -25.1617 1.515022 7.113553 9.23953
46.31108 101.8815 342.6725 0.008366518 0.1892141 9.21077 2.704868 -30.80514 7.204657 -0 22.00097 -0 -8.37876 -4.958401 -11.66692 -1.528799 12.03994 -6.520427 -0 32.37117 -0 -7.707088 -18.52231 13.89967 -0.5276629 -7.804587 2.167698 1.433934 10.36031 -7.223195 4.277856 23.81463 2.644027 -0.7986406 -10.92336 7.355264 1.754988 -11.63693 8.81206 91.22342 20.44131 -20.00498 -0 0 3.546186 -16.87499 6.902597 3.13707 3.827591 -21.70294 -3.531973 -77.92255 24.40025 -3.012552 0 0 -25.6212 2.043564 7.420767 8.460591
46.63222 101.8331 349.4554 -0.003684386 -0.07343141 8.61098 3.707657 -28.73066 8.392934 -0 25.42058 -0 -10.2257 -5.560285 -11.02383 -1.295058 10.58197 -6.310416 -0 39.25334 -0 -8.579234 -15.11853 15.65217 -0.2566242 -9.26801 2.042767 1.499299 10.03466 -7.597889 4.29003 24.43343 2.666061 -0.6441657 -11.26824 7.284481 1.561667 -12.0012 8.180842 91.11043 20.39119 -19.72255 -0 0 2.37803 -16.28718 6.54055 2.242201 3.718988 -20.67212 -2.772511 -78.9865 24.46188 -1.058393 0 0 -24.5216 2.322995 7.640862 8.167863
46.87939 102.6849 356.7136 -0.03856325 -0.6248256 7.351829 4.800074 -24.70383 9.276539 -0 27.20078 -0 -11.87326 -7.289651 -10.67648 -0.9872121 6.325348 -6.086368 -0 48.12029 -0 -8.43357 -12.69175 18.12403 0.04401472 -10.05 3.064274 1.783367 10.42924 -7.051725 4.381021 25.24359 2.668196 -0.4466864 -11.54051 7.257112 1.863765 -12.37948 8.213797 91.06144 20.27233 -18.92365 -0 0 1.596574 -15.87913 6.14318 1.492185 3.144121 -19.45654 -2.401551 -80.68431 24.71734 1.285879 0 0 -22.45662 2.26722 7.831085 8.236738
47.13291 103.7519 363.3064 -0.0728932 -1.036595 6.411543 5.146365 -19.29893 9.09818 -0 25.92335 -0 -13.08953 -9.24997 -10.35777 -1.662782 1.066668 -4.915391 -0 55.76711 -0 -8.478905 -10.38866 20.59562 0.314849 -10.29448 4.270769 1.745777 10.7453 -6.305032 4.672973 25.81281 2.533657 -0.1547179 -11.8366 7.236872 1.726727 -12.62213 8.603069 90.88561 20.15319 -17.86957 -0 0 0.8528539 -15.54864 5.739441 0.7077323 2.561221 -18.62943 -2.316198 -82.49935 25.02379 3.776857 0 0 -19.52923 1.956526 7.997608 8.658146
